:SAMPLES-PER-SECOND 30
:FULLY-SPECIFIED
:DEGREES
380
root  15.3288 38.8063 3.0499 -179.051 -33.0995 171.983
RightUpLeg  1.14576 -7.54683 -17.849
RightLeg  40.1278 -7.63859 -7.1583
RightFoot  -14.0213 -0.0728793 0.939441
RightToes  0.000482159 0.542163 -0.142577
Spine  5.08202 1.60712 -0.874255
Spine1  11.3786 3.71114 -6.9227
HEad  -4.58705 24.0694 -16.0644
LeftShoulder1  9.42156 -14.053 -46.8246
LeftArm  -12.1916 13.4289 -21.3441
LeftForeArm  41.3195 -76.6381 -51.9774
LeftHand  -0.25398 0.0180481 5.50724
RightShoulder  5.48615 9.70494 35.5633
RightArm  -13.0602 -24.5112 25.472
RightForeArm  16.2584 77.4554 79.5991
RightHand  1.34816 -15.5098 -16.0269
LeftUpLeg  -9.35176 27.6936 -9.63536
LeftLeg  26.0658 8.82954 5.0296
LeftFoot  -15.2979 0.217889 3.63776
LeftToes  1.06245e-005 4.65856e-005 -8.18503e-006
381
root  14.245 39.1147 2.42192 -179.744 -37.1277 173.36
RightUpLeg  -4.22697 -5.13786 -13.4824
RightLeg  43.9041 -7.60447 -8.06209
RightFoot  -13.8795 -0.0662124 1.25896
RightToes  0.000482159 0.542163 -0.142577
Spine  5.42016 1.03787 -1.13967
Spine1  11.5057 2.59819 -5.36384
HEad  -3.12909 23.1964 -15.2062
LeftShoulder1  9.36307 -14.0462 -46.5446
LeftArm  -11.9391 13.022 -21.7213
LeftForeArm  38.759 -76.1584 -49.4361
LeftHand  -0.25398 0.0180481 5.50724
RightShoulder  5.4795 9.72745 35.4441
RightArm  -13.0273 -23.5154 25.5067
RightForeArm  11.2336 77.2377 75.2919
RightHand  1.39398 -15.7099 -16.224
LeftUpLeg  -5.66146 24.7945 -8.37146
LeftLeg  23.2055 7.96062 4.0852
LeftFoot  -15.6469 0.240489 3.89714
LeftToes  1.06245e-005 4.65856e-005 -8.18503e-006
382
root  13.1211 39.4172 1.77956 179.299 -41.3038 175.127
RightUpLeg  -9.28002 -3.87952 -9.78353
RightLeg  43.6103 -7.97193 -8.34508
RightFoot  -13.2708 -0.082537 0.339963
RightToes  0.000482159 0.542163 -0.142577
Spine  5.81346 0.325837 -0.818689
Spine1  11.6342 1.41577 -3.97214
HEad  -2.16511 22.1574 -14.4395
LeftShoulder1  9.25505 -13.9434 -46.2714
LeftArm  -11.6792 12.5947 -22.1347
LeftForeArm  37.0793 -75.8201 -47.8302
LeftHand  -0.25398 0.0180481 5.50724
RightShoulder  5.39303 9.6925 34.9081
RightArm  -13.1537 -23.4896 25.7929
RightForeArm  10.145 77.2197 75.3514
RightHand  1.44147 -15.5143 -17.0348
LeftUpLeg  -1.8903 20.1762 -7.02183
LeftLeg  20.0411 8.971 3.502
LeftFoot  -15.6502 0.24347 3.9714
LeftToes  1.06245e-005 4.65856e-005 -8.18503e-006
383
root  11.9949 39.6189 1.126 177.732 -45.0631 177.042
RightUpLeg  -13.3756 -3.2987 -7.06013
RightLeg  39.76 -8.20039 -7.52141
RightFoot  -10.4947 -0.0793114 0.488269
RightToes  0.000482159 0.542163 -0.142577
Spine  7.04122 -0.226198 -0.143235
Spine1  11.4842 0.519216 -3.01662
HEad  -2.00612 20.8096 -13.7901
LeftShoulder1  9.14046 -13.8788 -45.8556
LeftArm  -11.6349 12.2447 -22.7763
LeftForeArm  37.237 -75.8249 -47.8072
LeftHand  -0.25398 0.0180481 5.50724
RightShoulder  5.30235 9.65307 34.3494
RightArm  -13.6485 -24.2076 26.191
RightForeArm  12.6675 77.3731 78.7319
RightHand  1.45442 -15.1697 -17.7397
LeftUpLeg  2.125 12.9237 -5.776
LeftLeg  17.1955 12.9816 2.75007
LeftFoot  -15.8118 0.249835 3.96657
LeftToes  1.06245e-005 4.65856e-005 -8.18503e-006
384
root  10.8582 39.6501 0.418241 176.34 -48.384 178.351
RightUpLeg  -16.3794 -3.211 -5.50745
RightLeg  33.3128 -7.9103 -5.8145
RightFoot  -6.99531 -0.114194 1.77708
RightToes  0.000482159 0.542163 -0.142577
Spine  8.52835 -0.536437 -0.024546
Spine1  11.1582 -0.0966696 -2.29691
HEad  -2.24404 19.2768 -13.1132
LeftShoulder1  9.00656 -13.8307 -45.2891
LeftArm  -11.7423 11.9556 -23.6597
LeftForeArm  39.1193 -76.1613 -49.3164
LeftHand  -0.25398 0.0180481 5.50724
RightShoulder  5.24008 9.6045 34.027
RightArm  -14.4692 -25.3264 26.5087
RightForeArm  17.8562 77.5435 84.2325
RightHand  1.45698 -15.0818 -17.9221
LeftUpLeg  5.77031 7.33556 -5.38377
LeftLeg  15.2196 15.4063 2.02457
LeftFoot  -16.5504 0.29528 4.29238
LeftToes  1.06245e-005 4.65856e-005 -8.18503e-006
385
root  9.64502 39.5115 -0.383958 176.241 -51.8192 178.499
RightUpLeg  -18.8452 -4.39673 -4.957
RightLeg  25.1206 -6.1968 -3.47868
RightFoot  -4.69421 -0.187305 2.7
RightToes  0.000482159 0.542163 -0.142577
Spine  9.03538 -0.810269 -0.894058
Spine1  11.0927 -0.74183 -1.43237
HEad  -2.48696 17.6616 -12.5119
LeftShoulder1  8.87458 -13.7001 -44.9513
LeftArm  -11.7213 11.4447 -24.3408
LeftForeArm  41.6129 -76.5992 -51.5263
LeftHand  -0.25398 0.0180481 5.50724
RightShoulder  5.18961 9.52796 33.876
RightArm  -15.5827 -26.6267 26.7793
RightForeArm  24.7229 77.5988 91.2024
RightHand  1.47646 -15.2637 -17.8265
LeftUpLeg  8.66224 4.49528 -5.6684
LeftLeg  14.1922 15.0805 1.54886
LeftFoot  -17.7575 0.384342 4.94135
LeftToes  1.06245e-005 4.65856e-005 -8.18503e-006
386
root  8.32971 39.2912 -1.24238 176.685 -55.3798 178.264
RightUpLeg  -20.5869 -6.97935 -4.6821
RightLeg  15.6215 -3.96717 -1.099
RightFoot  -3.23826 -0.279893 3.61459
RightToes  0.000482159 0.542163 -0.142577
Spine  8.9123 -1.18139 -1.57337
Spine1  11.2588 -1.39715 -0.617094
HEad  -2.60973 15.8783 -12.0463
LeftShoulder1  8.81016 -13.5438 -45.0374
LeftArm  -11.4139 10.6175 -24.4959
LeftForeArm  43.4866 -76.9159 -53.3369
LeftHand  -0.25398 0.0180481 5.50724
RightShoulder  5.15043 9.42604 33.887
RightArm  -17.0881 -28.0328 27.1536
RightForeArm  32.3498 77.446 99.0034
RightHand  1.49925 -15.3776 -17.8843
LeftUpLeg  11.6161 3.44841 -5.5843
LeftLeg  13.0784 13.0313 0.934211
LeftFoot  -19.1294 0.473731 5.27636
LeftToes  1.06245e-005 4.65856e-005 -8.18503e-006
387
root  6.94036 38.9945 -2.13106 176.451 -58.5752 178.209
RightUpLeg  -20.6643 -7.86464 -5.36789
RightLeg  5.75415 -5.87764 1.55377
RightFoot  -2.47606 -0.453236 5.65517
RightToes  0.000482159 0.542163 -0.142577
Spine  9.36414 -1.51096 -1.51597
Spine1  11.2768 -1.84342 -0.215168
HEad  -2.54201 13.9733 -11.662
LeftShoulder1  8.81173 -13.4718 -45.2443
LeftArm  -10.975 9.7612 -24.431
LeftForeArm  44.1352 -77.0365 -54.1316
LeftHand  -0.25398 0.0180481 5.50724
RightShoulder  5.14419 9.31397 34.1838
RightArm  -18.7809 -29.2885 27.4972
RightForeArm  39.336 77.0855 106.287
RightHand  1.50253 -15.1899 -18.2447
LeftUpLeg  15.2558 3.6542 -4.58272
LeftLeg  12.1074 9.68657 0.0791813
LeftFoot  -20.8133 0.504177 4.59019
LeftToes  1.06245e-005 4.65856e-005 -8.18503e-006
